HIERARCHY
ROOT root
{
	OFFSET 0.000000 0.000000 0.000000
	CHANNELS 6 Xposition Yposition Zposition Zrotation Yrotation Xrotation
	JOINT lhip
	{
		OFFSET 0.058581 -0.082280 -0.017664
		CHANNELS 3 Zrotation Yrotation Xrotation
		JOINT lknee
		{
			OFFSET 0.043451 -0.386469 0.008037
			CHANNELS 3 Zrotation Yrotation Xrotation
			JOINT lankle
			{
				OFFSET -0.014790 -0.426874 -0.037428
				CHANNELS 3 Zrotation Yrotation Xrotation
				JOINT ltoe
				{
					OFFSET 0.041054 -0.060286 0.122042
					CHANNELS 3 Zrotation Yrotation Xrotation
					End Site
					{
						OFFSET 0.000000 0.000000 0.000000
					}
				}
			}
		}
	}
	JOINT rhip
	{
		OFFSET -0.060310 -0.090513 -0.013543
		CHANNELS 3 Zrotation Yrotation Xrotation
		JOINT rknee
		{
			OFFSET -0.043257 -0.383688 -0.004843
			CHANNELS 3 Zrotation Yrotation Xrotation
			JOINT rankle
			{
				OFFSET 0.019056 -0.420046 -0.034562
				CHANNELS 3 Zrotation Yrotation Xrotation
				JOINT rtoe
				{
					OFFSET -0.034840 -0.062106 0.130323
					CHANNELS 3 Zrotation Yrotation Xrotation
					End Site
					{
						OFFSET 0.000000 0.000000 0.000000
					}
				}
			}
		}
	}
	JOINT lowerback
	{
		OFFSET 0.004439 0.124404 -0.038385
		CHANNELS 3 Zrotation Yrotation Xrotation
		JOINT upperback
		{
			OFFSET 0.004488 0.137956 0.026820
			CHANNELS 3 Zrotation Yrotation Xrotation
			JOINT chest
			{
				OFFSET -0.002265 0.056032 0.002855
				CHANNELS 3 Zrotation Yrotation Xrotation
				JOINT lowerneck
				{
					OFFSET -0.013390 0.211636 -0.033468
					CHANNELS 3 Zrotation Yrotation Xrotation
					JOINT upperneck
					{
						OFFSET 0.010113 0.088937 0.050410
						CHANNELS 3 Zrotation Yrotation Xrotation
						End Site
						{
							OFFSET 0.000000 0.000000 0.000000
						}
					}
				}
				JOINT lclavicle
				{
					OFFSET 0.071702 0.114000 -0.018898
					CHANNELS 3 Zrotation Yrotation Xrotation
					JOINT lshoulder
					{
						OFFSET 0.122921 0.045205 -0.019046
						CHANNELS 3 Zrotation Yrotation Xrotation
						JOINT lelbow
						{
							OFFSET 0.255332 -0.015649 -0.022946
							CHANNELS 3 Zrotation Yrotation Xrotation
							JOINT lwrist
							{
								OFFSET 0.265709 0.012698 -0.007375
								CHANNELS 3 Zrotation Yrotation Xrotation
								End Site
								{
									OFFSET 0.000000 0.000000 0.000000
								}
							}
						}
					}
				}
				JOINT rclavicle
				{
					OFFSET -0.082954 0.112472 -0.023707
					CHANNELS 3 Zrotation Yrotation Xrotation
					JOINT rshoulder
					{
						OFFSET -0.113228 0.046853 -0.008472
						CHANNELS 3 Zrotation Yrotation Xrotation
						JOINT relbow
						{
							OFFSET -0.260127 -0.014369 -0.031269
							CHANNELS 3 Zrotation Yrotation Xrotation
							JOINT rwrist
							{
								OFFSET -0.269108 0.006794 -0.006027
								CHANNELS 3 Zrotation Yrotation Xrotation
								End Site
								{
									OFFSET 0.000000 0.000000 0.000000
								}
							}
						}
					}
				}
			}
		}
	}
}
MOTION
Frames: 10
Frame Time: 0.033333
0.336602 0.162008 1.007299 87.817319 -0.243759 91.437852 7.009464 4.714089 -0.840490 -3.978525 -1.608121 0.501807 -0.367383 7.344493 -3.016527 0.000000 -0.000000 0.000000 -6.257293 -4.251408 -4.099857 1.385962 -2.380065 6.009776 3.941504 -4.625012 -6.334065 0.000000 -0.000000 0.000000 -2.450526 3.409447 4.248961 2.154658 -2.875016 13.640043 0.642217 1.186928 -4.697797 2.580780 4.310219 4.727971 3.535079 0.152395 -1.195517 -26.696243 -6.451431 -0.027116 -55.173801 -8.790780 18.752177 -0.667679 -23.205878 8.981159 -1.805805 -14.373456 7.442409 28.013694 10.126255 6.241790 53.608049 8.514445 16.713036 -8.678385 26.392521 -0.875798 -0.737227 12.365919 2.665160 
0.336542 0.162238 1.007243 87.887674 -0.217917 91.482927 7.019753 4.660808 -0.913620 -3.978778 -1.670542 0.519497 -0.343331 7.366173 -3.005569 0.000000 -0.000000 0.000000 -6.237344 -4.272449 -4.105453 1.407354 -2.280471 5.939085 3.961014 -4.766312 -6.314297 0.000000 -0.000000 0.000000 -2.506528 3.398780 4.401459 2.187475 -2.852740 13.407014 0.740228 1.204184 -4.574723 2.535432 4.166484 4.361950 3.540631 0.115678 -0.793115 -26.663387 -6.520227 -0.009355 -55.286663 -8.871563 18.620390 -0.787809 -23.177013 9.084143 -1.968319 -14.185590 7.373985 28.024983 10.019006 6.221867 53.524442 8.575496 16.639198 -8.720432 26.359926 -0.815171 -0.504190 12.184391 2.749127 
0.336662 0.162383 1.007136 88.026149 -0.181079 91.463983 7.060892 4.644984 -0.936281 -3.997840 -1.753492 0.542648 -0.319339 7.312025 -3.014990 0.000000 -0.000000 0.000000 -6.191071 -4.340181 -4.028178 1.388613 -2.247303 5.874756 3.973094 -4.850810 -6.312517 0.000000 -0.000000 0.000000 -2.536359 3.403347 4.517360 2.266696 -2.882777 13.263355 0.804080 1.184378 -4.410217 2.552707 4.067214 4.145858 3.437925 0.105568 -0.724388 -26.582929 -6.584927 -0.037529 -55.456289 -8.967333 18.620467 -0.885398 -23.440850 9.102555 -1.795104 -13.596865 6.890720 28.050447 9.849565 6.147938 53.249782 8.800445 16.589801 -8.467846 26.322239 -0.492756 -0.047016 11.794459 2.831084 
0.336600 0.162873 1.007075 88.142479 -0.188154 91.528480 7.011269 4.614354 -1.041401 -4.008291 -1.813852 0.547145 -0.342566 7.325420 -3.006312 0.000000 -0.000000 0.000000 -6.215365 -4.366764 -4.088090 1.371746 -2.301464 5.845148 4.015932 -4.901359 -6.291216 0.000000 -0.000000 0.000000 -2.601649 3.376933 4.672693 2.266595 -2.897064 13.064326 0.891550 1.269273 -4.384630 2.534225 3.939584 4.109399 3.513667 0.068014 -0.653226 -26.499625 -6.750065 0.015088 -55.635884 -8.955923 18.672371 -0.929385 -23.485618 8.962226 -1.456774 -13.594184 6.798409 27.975509 10.137914 6.353627 53.230956 8.701567 16.556466 -8.564933 26.184729 -0.932684 -0.442533 11.952703 2.677152 
0.336586 0.163055 1.007065 88.170009 -0.179176 91.535243 7.004993 4.602148 -1.056186 -4.000233 -1.825977 0.545979 -0.321671 7.318895 -3.015972 0.000000 -0.000000 0.000000 -6.218443 -4.371033 -4.083400 1.378740 -2.301080 5.830183 4.018693 -4.918782 -6.281023 0.000000 -0.000000 0.000000 -2.634966 3.384254 4.710862 2.304413 -2.896698 13.003363 0.936457 1.252466 -4.354835 2.528321 3.933888 4.063857 3.520300 0.049813 -0.554722 -26.527839 -6.735898 0.039505 -55.648154 -8.985971 18.679498 -0.944439 -23.522075 9.022767 -1.409170 -13.595292 6.760124 28.067715 10.060731 6.327276 53.103900 8.715127 16.522440 -8.598119 26.190546 -0.908724 -0.464728 11.909441 2.681694 
0.336720 0.163424 1.007057 88.168999 -0.167014 91.543969 7.002359 4.602403 -1.040171 -4.013609 -1.835196 0.513454 -0.287659 7.295500 -3.014391 0.000000 -0.000000 0.000000 -6.239178 -4.377215 -4.054718 1.399978 -2.306484 5.759242 4.045382 -4.913134 -6.229091 0.000000 -0.000000 0.000000 -2.707512 3.459912 4.751794 2.372357 -2.837076 12.951387 1.007890 1.224256 -4.329359 2.502594 3.961069 4.018304 3.538855 0.076238 -0.531285 -26.541875 -6.800822 0.077404 -55.719711 -9.041828 18.676963 -0.951535 -23.493475 8.963789 -1.434425 -13.692897 6.670291 28.158604 10.015412 6.328238 52.955118 8.684102 16.450872 -8.717763 26.160912 -1.000952 -0.434801 11.972060 2.681283 
0.336819 0.163820 1.007050 88.188197 -0.145898 91.554162 6.989557 4.621074 -1.055184 -3.996102 -1.872140 0.541335 -0.282801 7.281505 -3.039312 0.000000 -0.000000 0.000000 -6.239243 -4.399924 -4.030954 1.393587 -2.303192 5.708916 4.067275 -4.905589 -6.205818 0.000000 -0.000000 0.000000 -2.778052 3.512496 4.814722 2.414792 -2.811625 12.965635 1.066592 1.225341 -4.409385 2.527211 3.909805 4.034588 3.581577 0.031742 -0.589194 -26.482975 -6.801942 0.002076 -55.836082 -9.021523 18.790694 -0.991535 -23.474765 8.934523 -1.341350 -13.729621 6.692912 28.134437 10.093802 6.336354 52.976724 8.610073 16.453262 -8.859048 26.075408 -1.397457 -0.579044 12.095982 2.609397 
0.336711 0.164313 1.006964 88.253934 -0.116040 91.593243 6.978160 4.583392 -1.120812 -3.973023 -1.893902 0.560448 -0.266304 7.291290 -3.038048 0.000000 -0.000000 0.000000 -6.239407 -4.404540 -4.061911 1.406104 -2.341966 5.690964 4.074014 -4.942732 -6.186936 0.000000 -0.000000 0.000000 -2.828182 3.581516 4.876163 2.477960 -2.792700 12.921920 1.136193 1.185250 -4.431499 2.523662 3.920262 3.968212 3.632101 -0.037673 -0.600042 -26.440015 -6.816206 -0.023019 -55.944052 -9.066932 18.847994 -1.015409 -23.443737 8.983761 -1.353925 -13.763141 6.705139 28.153307 10.008516 6.263031 52.909928 8.552991 16.402819 -8.946123 26.113720 -1.475350 -0.584974 12.093014 2.585305 
0.336721 0.164721 1.006950 88.298422 -0.091424 91.639930 6.981543 4.578632 -1.183808 -3.975368 -1.912200 0.579440 -0.264772 7.258248 -3.042020 0.000000 -0.000000 0.000000 -6.220027 -4.429707 -4.081198 1.382770 -2.349513 5.642013 4.097126 -4.952349 -6.152030 0.000000 -0.000000 0.000000 -2.916211 3.625726 4.852939 2.555543 -2.790704 12.944683 1.212624 1.198713 -4.441925 2.506010 3.894453 3.967421 3.642786 -0.087575 -0.660067 -26.479034 -6.889952 -0.014565 -55.953043 -9.103871 18.891655 -1.004014 -23.415725 8.879401 -1.313762 -13.722777 6.721019 28.215076 10.019241 6.260878 52.797591 8.495066 16.340462 -9.072885 26.122149 -1.733585 -0.606079 12.108136 2.499539 
0.336638 0.165206 1.006858 88.363233 -0.060667 91.720791 6.989748 4.587504 -1.287306 -3.989277 -1.923135 0.581876 -0.241977 7.247767 -3.032020 0.000000 -0.000000 0.000000 -6.204000 -4.443979 -4.176950 1.370015 -2.369627 5.666683 4.110049 -4.969727 -6.148849 0.000000 -0.000000 0.000000 -2.955919 3.628439 4.919298 2.593049 -2.799973 12.728873 1.260375 1.177957 -4.379539 2.470673 3.839456 3.946488 3.680460 -0.161722 -0.691895 -26.433914 -6.867181 -0.030991 -56.039083 -9.126248 18.935131 -0.992971 -23.379962 8.908018 -1.244682 -13.726783 6.746681 28.269487 9.982636 6.315421 52.769226 8.477883 16.287833 -9.205062 26.143521 -1.899521 -0.644082 12.121066 2.469748 
